<svg version="1.1" id="Layer_1" xmlns="http://www.w3.org/2000/svg" xmlns:xlink="http://www.w3.org/1999/xlink" x="0px" y="0px"
	 width="100%" viewBox="0 0 720 1024" enable-background="new 0 0 720 1024" xml:space="preserve">
<path fill="#000000" opacity="1.000000" stroke="none" 
	d="
M721.000000,168.000000 
	C721.000000,277.022644 721.000000,386.045288 720.713745,495.480164 
	C716.367554,496.079071 713.993408,500.056915 710.106506,500.542114 
	C704.312561,501.265289 701.339844,504.818024 700.050293,510.176086 
	C696.436157,525.192078 689.319458,538.972290 686.289673,554.401123 
	C683.051758,570.889465 676.362671,586.784668 670.289917,602.596985 
	C667.126282,610.834351 666.265564,618.994568 666.700623,627.518799 
	C668.151306,655.940063 659.656067,680.978882 641.263245,702.666809 
	C635.155457,709.868774 629.041504,716.833618 625.067810,725.777344 
	C619.656311,737.956787 614.557068,750.257019 609.690063,762.637878 
	C604.832092,774.995850 595.418579,780.823975 583.208862,783.564880 
	C578.499939,784.622009 573.758667,785.719727 569.232361,787.353760 
	C564.742920,788.974487 560.080627,790.474365 556.661865,794.223206 
	C545.828491,806.102661 535.849609,818.832703 522.030029,827.675232 
	C514.411987,832.549561 506.721619,837.064270 497.772705,839.031982 
	C490.938965,840.534607 484.153168,842.262634 477.301819,843.676086 
	C467.358521,845.727417 457.742493,849.783936 447.563110,850.111084 
	C428.707245,850.716919 410.146942,853.998169 391.395325,855.480469 
	C381.736938,856.244019 372.024567,855.535950 362.440765,856.599182 
	C336.316406,859.497314 310.579773,856.507202 284.803925,852.713440 
	C267.029327,850.097290 249.344055,845.561340 231.297104,846.502869 
	C219.857803,847.099731 209.116104,845.608704 198.379593,842.250000 
	C193.138763,840.610535 187.763855,839.400513 182.518845,837.773132 
	C174.401596,835.254517 166.416031,832.416870 159.042633,828.032410 
	C150.234360,822.794861 140.873581,819.229614 130.552216,817.938477 
	C120.955292,816.737915 111.346260,815.800293 101.714287,815.082458 
	C93.749580,814.488892 86.580841,811.880554 81.040947,806.204834 
	C75.471756,800.499268 70.680206,794.063904 66.217911,787.417175 
	C59.658447,777.646729 52.521305,768.073853 41.267994,763.648315 
	C26.620075,757.887817 23.030262,739.724915 23.817329,726.940063 
	C24.235405,720.148987 25.631159,713.422607 26.432571,706.648926 
	C26.893944,702.749329 25.950806,699.019043 24.264240,695.501282 
	C21.581329,689.905273 19.079464,689.294617 14.295474,693.308105 
	C10.656803,696.360657 7.015638,697.775879 2.820415,694.329102 
	C2.108204,695.374084 1.554106,696.187012 1.000004,697.000000 
	C1.000000,565.977356 1.000000,434.954712 1.242580,303.647797 
	C2.466977,304.208954 3.563821,304.371521 4.742294,303.861633 
	C9.999405,301.587219 15.050041,302.381561 20.217909,304.450775 
	C26.728846,307.057800 33.375732,307.893524 40.130489,304.898193 
	C42.955196,303.645630 45.994583,304.222382 49.002758,304.600220 
	C56.238850,305.509064 63.441364,305.503021 69.520523,300.687073 
	C72.337753,298.455231 75.414146,297.094757 78.710861,295.838623 
	C85.342751,293.311707 93.027092,292.196259 97.433670,285.989410 
	C103.668892,277.206848 113.281311,273.522003 122.001984,268.535614 
	C132.836456,262.340576 145.511734,261.274841 156.942917,257.033386 
	C173.417221,250.920715 190.822510,248.528580 207.214432,242.356094 
	C233.919205,232.300186 260.914856,222.995377 279.897156,199.720810 
	C283.236176,195.626770 286.057495,191.588776 287.399170,186.429962 
	C290.581421,174.194260 299.865906,167.980209 312.425568,169.423645 
	C318.239105,170.091797 323.887787,171.332077 329.392365,173.442429 
	C338.808441,177.052368 348.027985,177.205215 357.419373,172.494980 
	C363.220123,169.585602 368.743073,166.082306 374.737640,163.631699 
	C386.205627,158.943542 397.229645,153.475235 407.058624,145.904510 
	C415.394531,139.483856 424.987366,138.172729 434.948395,138.550385 
	C445.277191,138.941956 455.601746,139.228333 465.926331,138.907089 
	C474.418060,138.642883 482.305115,136.499802 489.150879,131.003311 
	C495.428528,125.962944 502.513641,122.208618 510.222839,119.807175 
	C514.780029,118.387581 518.947388,116.212082 522.277100,112.931992 
	C529.817688,105.503876 538.633118,105.057915 548.281616,107.059013 
	C564.332275,110.387932 577.366821,119.363480 589.659058,129.388443 
	C601.958923,139.419556 615.092651,147.775528 630.525330,151.636444 
	C646.039490,155.517792 662.018372,152.910172 677.768005,153.409149 
	C684.334900,153.617203 689.681580,154.092285 694.539612,158.774963 
	C698.804077,162.885498 703.134094,166.951218 709.690857,167.754791 
	C713.518738,168.223892 717.294128,166.276703 721.000000,168.000000 
M347.129395,353.311615 
	C343.302917,353.183167 339.470154,353.153473 335.651093,352.908875 
	C320.369415,351.930054 306.404297,355.752991 295.017822,366.001984 
	C288.705383,371.683899 282.064392,375.534821 273.838165,377.343201 
	C263.081329,379.707977 252.662613,383.765076 245.941452,392.751404 
	C237.812714,403.619659 228.278229,412.541534 216.878632,419.703735 
	C214.579987,421.147919 213.050552,423.426239 213.013214,426.347900 
	C212.880447,436.731842 209.008072,445.780457 203.007767,454.014771 
	C199.210556,459.225708 196.963226,465.046448 195.305542,471.214020 
	C193.005493,479.771545 195.509979,488.423157 194.451904,497.042908 
	C193.152130,507.631470 195.928406,517.182739 203.848099,524.864990 
	C206.160889,527.108398 207.316696,530.154297 208.631149,533.018250 
	C214.168015,545.082153 223.731277,551.686035 236.587219,553.924927 
	C240.056137,554.529053 243.422791,555.491882 246.488754,557.244751 
	C255.906158,562.628906 266.064728,564.825195 276.777069,563.692688 
	C285.395691,562.781494 293.693268,563.822205 301.912567,566.223450 
	C305.312103,567.216553 308.748138,567.786011 312.215759,566.730469 
	C322.953857,563.461792 334.243073,562.060913 344.491486,557.119080 
	C348.094391,555.381775 350.991272,551.957520 354.981842,551.453552 
	C365.753662,550.093201 373.975250,543.848938 382.512909,538.070496 
	C386.546234,535.340637 390.988983,532.368591 395.800262,532.883972 
	C406.045837,533.981384 414.636047,529.667603 422.559601,524.781677 
	C431.390259,519.336304 440.507996,519.062622 449.966156,519.972351 
	C460.581909,520.993347 470.155762,518.335999 478.606598,512.350952 
	C484.384735,508.258728 490.538727,505.890930 497.344543,504.717010 
	C505.923523,503.237183 513.733582,500.065094 519.682373,493.503693 
	C526.249939,486.259888 531.678040,477.926880 540.217102,472.607544 
	C541.012024,472.112366 541.494751,471.089050 542.071655,470.274902 
	C551.157349,457.452148 553.286682,443.118866 551.109924,427.912079 
	C550.703369,425.071381 550.585693,422.302734 551.003357,419.474640 
	C554.009521,399.120117 545.648132,383.496674 530.326721,371.070892 
	C524.108337,366.027710 516.683777,362.955170 510.740936,356.976685 
	C503.779388,349.973419 494.132751,345.970245 484.205902,343.852234 
	C480.702606,343.104797 476.924805,342.194336 473.284760,343.962158 
	C473.887604,346.098419 475.528961,346.442230 476.732666,347.209808 
	C485.587860,352.856232 492.424164,360.523651 498.579376,368.878632 
	C500.454407,371.423767 501.280975,374.175568 498.202026,376.273376 
	C494.956635,378.484558 493.037933,376.156372 491.352570,373.639191 
	C487.996002,368.626068 483.681976,364.475037 479.517151,360.146881 
	C466.392212,346.507233 447.356934,347.702545 434.133087,360.712524 
	C421.380066,373.259247 417.170166,388.129059 421.871185,405.449188 
	C422.380402,407.325165 422.517944,409.083649 420.558838,410.289917 
	C418.474640,411.573242 416.727417,410.856476 415.164337,409.338837 
	C413.689392,407.906799 412.958099,406.109985 412.422424,404.117493 
	C411.273773,399.844757 411.765076,395.497650 411.541504,391.186340 
	C410.426697,369.689270 426.963776,347.735840 448.017426,342.735626 
	C449.129028,342.471619 450.449585,342.580627 450.551361,340.936462 
	C445.145111,336.888733 435.694122,335.299164 426.719513,336.732819 
	C413.765289,338.802185 400.982330,341.608795 387.676300,341.725769 
	C376.253174,341.826202 364.713562,343.337799 355.028656,350.808563 
	C353.109833,352.288727 350.588104,353.090302 347.129395,353.311615 
M461.080841,533.523315 
	C455.909882,526.382385 448.005035,528.258423 441.035461,527.861206 
	C433.579102,527.436340 427.848022,532.898254 421.139618,535.195190 
	C418.143555,536.221069 416.223022,538.127197 414.987335,541.215881 
	C412.531281,547.354919 407.730347,551.004883 401.295288,552.510986 
	C395.686768,553.823608 390.080719,553.571838 384.430725,552.732117 
	C381.722504,552.329529 378.924561,551.019287 376.236115,553.000366 
	C372.388519,555.835632 367.879120,556.859314 363.320587,558.002625 
	C353.418121,560.486084 345.190735,567.021973 335.430023,569.967285 
	C333.981873,570.404236 333.386566,572.081360 332.652344,573.394043 
	C329.200745,579.565063 326.665466,586.055237 326.222809,593.177856 
	C325.738678,600.968384 321.824677,605.726868 314.324432,607.931763 
	C306.480194,610.237854 299.079193,613.745911 291.646057,617.109070 
	C286.637360,619.375366 281.748169,621.861633 277.911743,626.024292 
	C272.947174,631.411011 267.650604,636.502625 262.860779,642.036255 
	C258.394287,647.196472 255.204239,653.183716 253.311661,659.814758 
	C250.489960,669.701355 267.927307,683.537476 277.100983,683.745850 
	C292.299988,684.091187 307.370667,682.634949 322.482574,681.654114 
	C326.695129,681.380798 328.821960,679.290588 328.513733,674.849243 
	C327.831604,665.018616 330.079071,655.660950 333.453186,646.530579 
	C336.019562,639.585938 337.475159,639.236389 343.959747,643.957581 
	C342.319824,649.261047 340.591278,654.622559 339.006287,660.026123 
	C336.034119,670.158691 336.777405,679.690186 343.566315,688.308289 
	C345.013214,690.145081 346.590637,691.455017 348.897949,691.531921 
	C352.556671,691.653931 356.223419,691.675049 359.883026,691.586243 
	C362.580322,691.520813 364.823151,690.247070 365.920868,687.791382 
	C368.229156,682.627502 370.562164,677.446899 369.166138,671.467346 
	C368.680481,669.387024 368.727264,667.164673 368.679535,665.003845 
	C368.594269,661.142822 371.730286,661.156738 374.248108,660.699158 
	C377.328278,660.139282 377.062347,662.531372 377.434357,664.509644 
	C378.115295,668.131042 378.397400,671.765747 378.384308,675.436646 
	C378.375854,677.805542 379.437225,679.641418 381.897095,679.202881 
	C386.416260,678.397217 390.879547,679.253296 395.358215,679.072571 
	C402.911224,678.767822 403.652130,678.081238 403.472107,670.549072 
	C403.231750,660.492188 404.719940,650.661255 406.671539,640.844299 
	C407.398865,637.185608 409.286682,636.307678 412.687653,636.877686 
	C416.238678,637.472839 416.922668,639.344055 416.046783,642.529297 
	C413.918518,650.269043 413.348907,658.262268 412.544861,666.201172 
	C412.108612,670.508057 411.741730,675.047302 413.872833,678.958679 
	C415.568970,682.071777 417.078156,685.052856 417.574036,688.627869 
	C418.021301,691.852295 420.424408,693.692810 423.576630,693.540283 
	C429.747467,693.241760 435.203491,691.360474 439.163055,686.022644 
	C443.457336,680.233643 443.061249,673.859558 442.245575,667.366211 
	C440.772308,655.638123 438.582092,644.031860 435.682861,632.576782 
	C434.620178,628.377991 436.179016,627.040833 440.176788,626.391296 
	C444.472870,625.693359 444.486847,628.710754 444.988922,631.106018 
	C447.818665,644.606262 451.109802,658.032837 451.558167,671.932007 
	C451.643585,674.580811 451.248505,678.077454 455.193237,678.650757 
	C466.972382,680.362549 478.729248,680.760315 490.284302,677.147034 
	C493.148438,676.251465 495.441650,674.586182 495.726807,671.314026 
	C496.809082,658.895142 495.715515,646.835571 490.745117,635.164062 
	C486.328156,624.792053 478.132782,617.769897 470.397644,610.202820 
	C465.524933,605.435913 460.159149,600.426147 460.848572,592.857422 
	C461.643799,584.127563 461.708649,575.201233 465.223480,566.880554 
	C465.923065,565.224365 466.733063,563.242981 466.438629,561.600403 
	C464.799835,552.457153 464.503784,543.063416 461.080841,533.523315 
M522.218567,258.774292 
	C514.376343,259.754242 506.930237,262.082306 499.882843,265.607513 
	C494.249146,268.425568 492.906464,274.240112 496.386078,279.445709 
	C500.797607,286.045441 507.671265,288.687592 514.809082,290.458984 
	C522.242188,292.303619 528.224243,296.281982 533.433594,301.541321 
	C536.625671,304.764069 537.949097,308.650269 536.359619,313.405762 
	C532.467712,325.049377 529.921997,337.373016 518.359802,344.613647 
	C516.818298,345.578979 515.625427,347.288116 516.901001,349.327576 
	C517.962036,351.024048 519.938293,352.256409 521.573059,351.405029 
	C527.724426,348.201385 534.245361,346.046753 540.754333,343.804932 
	C541.317078,343.611145 541.828003,342.968140 542.146851,342.410248 
	C546.766235,334.327179 553.852661,332.170685 562.824585,332.445221 
	C571.966919,332.724945 582.092285,325.542938 584.080627,318.386963 
	C587.226685,307.064392 585.547607,296.090210 579.550720,286.215240 
	C574.541504,277.966736 567.921021,270.807068 560.974731,264.053223 
	C557.370117,260.548492 552.942749,258.809387 547.969360,258.376160 
	C539.668823,257.653107 531.372803,257.373993 522.218567,258.774292 
M111.864975,427.401337 
	C100.062859,434.902557 90.809608,444.464417 85.519508,457.772308 
	C82.491997,465.388367 82.537582,472.294739 88.330055,478.084137 
	C94.361862,484.112732 101.487663,487.522430 110.490273,484.156830 
	C123.385239,479.336090 132.395523,470.012482 138.459320,458.350891 
	C143.743408,448.188751 151.064682,441.977264 162.036438,439.539856 
	C168.058472,438.202057 173.048264,435.206696 176.907883,430.168732 
	C180.459717,425.532562 185.403351,423.430267 191.355331,423.710541 
	C194.328186,423.850555 197.326263,423.979584 200.248169,422.912292 
	C203.218506,421.827240 206.233429,420.454712 205.871750,416.881744 
	C205.462814,412.841858 201.895615,412.564270 198.629990,412.374573 
	C191.113220,411.937958 183.779816,412.987610 176.375443,414.319946 
	C162.445496,416.826447 147.745026,413.097626 134.230728,419.364441 
	C134.089066,419.430176 133.900253,419.387512 133.735947,419.412140 
	C126.147614,420.550110 118.525589,421.594696 111.864975,427.401337 
M227.995300,652.594482 
	C222.083160,647.112427 218.031174,640.852722 220.024658,632.313904 
	C222.130615,623.293152 228.071106,617.245422 235.663315,612.483398 
	C237.199875,611.519653 239.706970,611.361145 239.631836,607.911316 
	C231.434265,607.127441 223.276855,606.064758 215.589630,610.356445 
	C208.469818,614.331421 201.572815,618.715698 194.374146,622.536194 
	C187.832092,626.008362 183.586548,631.374878 180.644226,637.855896 
	C172.650452,655.463867 178.519653,669.386841 198.976044,671.998169 
	C202.771072,672.482605 206.726852,672.270813 210.372681,673.254395 
	C220.994522,676.119873 230.655487,672.229004 240.537643,669.642029 
	C244.032730,668.727051 243.819534,666.010559 243.795380,663.261780 
	C243.770966,660.483398 243.155228,658.202942 239.940231,657.851562 
	C235.649658,657.382568 232.079987,655.294861 227.995300,652.594482 
M393.050690,544.512451 
	C395.218384,544.705383 397.627380,545.571716 398.980927,542.263611 
	C396.183380,541.381409 393.861786,540.706604 393.050690,544.512451 
z"/>
<path fill="#000000" opacity="1.000000" stroke="none" 
	d="
M429.713745,499.678711 
	C425.463562,503.315521 420.540924,504.142761 415.640045,505.102051 
	C409.865173,506.232483 404.549133,507.882111 400.943665,513.350586 
	C398.394897,517.216370 393.860046,517.770386 389.688629,516.359680 
	C384.438782,514.584229 380.037140,515.640808 375.551849,518.522522 
	C372.357513,520.574768 368.889038,522.327881 365.336945,523.669006 
	C358.022919,526.430542 350.583282,521.895935 349.301636,514.196716 
	C348.590637,509.925568 351.707520,506.441132 357.129913,505.856445 
	C361.416046,505.394287 365.887604,505.913788 370.022491,504.929199 
	C381.110535,502.288971 392.002563,498.857941 401.940857,493.093445 
	C407.399170,489.927460 412.521118,486.142517 418.559540,484.089874 
	C424.579681,482.043457 428.262939,483.117096 431.411774,487.292755 
	C434.855682,491.859650 433.064026,495.677460 429.713745,499.678711 
z"/>
<path fill="#000000" opacity="1.000000" stroke="none" 
	d="
M301.408936,440.804993 
	C301.735901,441.233673 301.844452,441.362213 301.929321,441.504852 
	C303.611450,444.330627 306.247589,447.528503 302.538605,450.209534 
	C298.703918,452.981415 296.693329,449.399048 294.607971,446.746033 
	C283.436218,432.532806 269.299683,424.953857 251.012009,429.478210 
	C236.331253,433.110229 226.669617,443.389038 220.315948,456.718414 
	C216.082596,465.599609 214.067963,474.906799 216.901352,484.806824 
	C217.625366,487.336548 217.677536,490.422729 214.076996,491.220154 
	C210.393311,492.035950 209.460999,489.194092 208.956650,486.525818 
	C205.059387,465.906921 210.961533,448.468719 226.091187,434.010223 
	C233.379776,427.044952 241.702347,422.342651 251.766846,420.576843 
	C269.601685,417.447754 284.059906,423.919403 296.760345,435.752502 
	C298.340088,437.224335 299.711548,438.919647 301.408936,440.804993 
z"/>
<path fill="#000000" opacity="1.000000" stroke="none" 
	d="
M256.696442,483.485657 
	C261.941986,480.412415 267.061249,480.446381 270.896454,483.639709 
	C274.289795,486.465210 276.407806,490.258453 275.088928,494.632812 
	C273.424011,500.154999 269.829834,504.399994 263.724152,505.248169 
	C259.388184,505.850464 254.915298,505.623444 252.083908,501.462402 
	C249.477615,497.632233 250.159882,490.843719 253.320419,486.983063 
	C254.264160,485.830322 255.377441,484.816345 256.696442,483.485657 
z"/>
<path fill="#000000" opacity="1.000000" stroke="none" 
	d="
M486.073730,417.227234 
	C488.067078,422.958984 485.559875,427.083771 481.945435,430.464294 
	C478.602539,433.590851 471.507294,433.958771 467.776276,431.716125 
	C463.775757,429.311401 462.932129,425.549469 463.768555,421.293884 
	C464.865387,415.713379 469.528198,411.089355 474.371033,410.693878 
	C479.519684,410.273376 483.459076,412.219940 486.073730,417.227234 
z"/>
</svg>